<?xml version="1.0" encoding="UTF-8" standalone="no"?>
<svg width="347px" height="330px" viewBox="0 0 347 330" version="1.1" xmlns="http://www.w3.org/2000/svg" xmlns:xlink="http://www.w3.org/1999/xlink">
    <!-- Generator: Sketch 39.1 (31720) - http://www.bohemiancoding.com/sketch -->
    <title>Group 7</title>
    <desc>Created with Sketch.</desc>
    <defs></defs>
    <g id="Page-1" stroke="none" stroke-width="1" fill="none" fill-rule="evenodd">
        <g id="Group-7">
            <rect id="Rectangle-3" fill="#8391B1" x="0" y="0" width="347" height="328"></rect>
            <path d="M172.523754,40 C113.475962,40 114.230728,91.5786403 114.230728,91.5786403 L113.764384,118.921534 C108.940201,118.856657 107.857357,123.53255 107.857357,133.059053 C107.857357,147.338079 116.570279,162.315979 124.490301,170.034102 C127.17427,181.259528 132.357585,191.240589 139.257867,198.775212 C139.017557,198.923162 138.721932,198.938772 138.480627,199.085927 C114.948704,213.432305 86.8574623,223.237417 68.5289958,232.953829 C63.4745259,235.631141 58.129505,240.33557 53.7614292,246.314561 C50.7872674,250.427643 48.2163553,254.798708 45.9890257,259.364579 C45.9075461,259.526399 45.7582662,259.668383 45.6781296,259.830651 C45.3734514,260.464265 45.0369722,261.055438 44.7454412,261.694939 C40.3180862,271.163952 37.4612839,281.382454 35.7294532,291.52355 C35.6936379,291.712017 35.608726,291.801602 35.5740051,291.989622 C35.4943162,292.465935 35.3368784,293.067141 35.2631089,293.543196 C34.9528595,295.299624 34.7352272,296.944 34.4858686,298.669988 C34.2734146,300.091665 33.9120787,303.091876 34.0195244,304.573567 C34.0105706,304.66365 34.025991,304.79415 34.0195244,304.884282 C33.3664435,314.139782 50.8079159,317.157513 50.8079159,317.157513 C57.3144149,319.080752 69.245778,321.267617 83.7629066,323.21645 C109.660137,327.488314 136.213572,328.941902 162.264182,329.741458 C164.792891,329.819311 167.440911,329.88737 170.192033,329.896816 L170.658377,329.896816 C172.027226,329.896816 173.440067,329.909741 174.855475,329.896816 C177.606508,329.88737 180.254612,329.818665 182.783327,329.741458 C208.82256,328.94225 235.3983,327.483895 261.284602,323.21645 C275.823135,321.265981 287.726114,319.08283 294.239592,317.157513 C294.239592,317.157513 311.681159,314.139782 311.027984,304.884282 C311.01903,304.79415 311.035445,304.66365 311.027984,304.573567 C311.13543,303.091876 310.774094,300.091665 310.56164,298.669988 C310.205378,296.203933 309.800839,293.736231 309.318055,291.212835 C307.400075,280.121956 304.075157,269.100145 298.903034,258.898507 C298.844835,258.784164 298.806085,258.702035 298.747586,258.587792 C296.615724,254.319849 294.079284,250.177128 291.286079,246.314561 C286.918093,240.33557 281.572987,235.631141 276.518512,232.953829 C258.190051,223.237417 230.098809,213.432305 206.566881,199.085927 C206.325576,198.938722 206.029872,198.923162 205.789641,198.775212 C212.689924,191.240589 217.873239,181.259528 220.557208,170.034102 C228.477234,162.315979 237.190151,147.338079 237.190151,133.059053 C237.190151,123.53255 235.951944,118.856582 231.127676,118.921534 L230.81678,91.5786403 C230.81678,91.5786403 231.571541,40 172.523754,40 L172.523754,40 Z" id="Path" fill="#FFFEFE"></path>
        </g>
    </g>
</svg>